<svg width="128" height="128" viewBox="0 0 128 128" fill="none" xmlns="http://www.w3.org/2000/svg">
<path d="M103.428 12H24.1905C17.4579 12 12 17.4579 12 24.1905V103.428C12 110.161 17.4579 115.619 24.1905 115.619H103.428C110.161 115.619 115.619 110.161 115.619 103.428V24.1905C115.619 17.4579 110.161 12 103.428 12Z" fill="#2D3439"/>
<path d="M85.627 39H42.373C40.5873 39 39 40.5873 39 42.373V45.3492V46.5397V85.627C39 87.4127 40.5873 89 42.373 89H85.627C87.4127 89 89 87.4127 89 85.627V46.5397V45.9444V42.373C89 40.5873 87.4127 39 85.627 39ZM40.7857 42.373C40.7857 41.381 41.5794 40.7857 42.373 40.7857H85.627C86.6191 40.7857 87.2143 41.5794 87.2143 42.373V45.746H82.254H40.5873V42.373H40.7857ZM85.627 87.2143H42.373C41.381 87.2143 40.7857 86.4206 40.7857 85.627V47.3333H83.246H87.2143V85.627C87.2143 86.4206 86.4206 87.2143 85.627 87.2143Z" fill="white"/>
<path d="M75.7063 63.6032H46.9364C45.9444 63.6032 45.3491 64.3968 45.3491 65.1905V75.1111C45.3491 76.1032 46.1428 76.6984 46.9364 76.6984H48.3253H49.5158H75.7063C76.6983 76.6984 77.2936 75.9048 77.2936 75.1111V65.1905C77.2936 64.3968 76.6983 63.6032 75.7063 63.6032ZM75.7063 75.3095H49.5158H48.3253H46.9364V65.3889H75.7063V75.3095Z" fill="white"/>
<path d="M43.9601 42.373H43.1665C42.7696 42.373 42.3728 42.7698 42.3728 43.1667C42.3728 43.5635 42.7696 43.9603 43.1665 43.9603H43.9601C44.3569 43.9603 44.7538 43.5635 44.7538 43.1667C44.7538 42.7698 44.5553 42.373 43.9601 42.373Z" fill="white"/>
<path d="M48.1269 42.373H47.3332C46.9364 42.373 46.5396 42.7698 46.5396 43.1667C46.5396 43.5635 46.9364 43.9603 47.3332 43.9603H48.1269C48.5237 43.9603 48.9205 43.5635 48.9205 43.1667C48.9205 42.7698 48.7221 42.373 48.1269 42.373Z" fill="white"/>
<path d="M52.2936 42.373H51.5C51.1031 42.373 50.7063 42.7698 50.7063 43.1667C50.7063 43.5635 51.1031 43.9603 51.5 43.9603H52.2936C52.6904 43.9603 53.0873 43.5635 53.0873 43.1667C53.0873 42.7698 52.8888 42.373 52.2936 42.373Z" fill="white"/>
<path d="M46.1428 54.4762H48.5237H56.6586H59.0396C59.4364 54.4762 59.8332 54.0794 59.8332 53.6825C59.8332 53.2857 59.4364 52.8889 59.0396 52.8889H56.6586H48.5237H46.1428C45.7459 52.8889 45.3491 53.2857 45.3491 53.6825C45.3491 54.0794 45.7459 54.4762 46.1428 54.4762Z" fill="white"/>
<path d="M63.6032 54.4762H65.9842H74.1191H76.5C76.8969 54.4762 77.2937 54.0794 77.2937 53.6825C77.2937 53.2857 76.8969 52.8889 76.5 52.8889H74.1191H65.9842H63.6032C63.2064 52.8889 62.8096 53.2857 62.8096 53.6825C62.8096 54.0794 63.2064 54.4762 63.6032 54.4762Z" fill="white"/>
<path d="M55.6668 81.4603H53.2859H49.1192H46.7382C46.3414 81.4603 45.9446 81.8572 45.9446 82.254C45.9446 82.6508 46.3414 83.0476 46.7382 83.0476H49.1192H53.2859H55.6668C56.0636 83.0476 56.4605 82.6508 56.4605 82.254C56.4605 81.8572 56.262 81.4603 55.6668 81.4603Z" fill="white"/>
<path d="M85.627 39H42.373C40.3889 39 39 40.5873 39 42.373V85.627C39 87.6111 40.5873 89 42.373 89H85.627C87.6111 89 89 87.4127 89 85.627V42.373C89 40.3889 87.4127 39 85.627 39ZM87.2143 85.627C87.2143 86.4206 86.4206 87.2143 85.627 87.2143H42.373C41.5794 87.2143 40.7857 86.4206 40.7857 85.627V47.3333H87.2143V85.627ZM87.2143 45.5476H40.7857V42.373C40.7857 41.5794 41.5794 40.7857 42.373 40.7857H85.627C86.4206 40.7857 87.2143 41.5794 87.2143 42.373V45.5476Z" fill="white"/>
<path d="M46.9368 77.0952H75.7067C76.6987 77.0952 77.4924 76.3016 77.4924 75.3095V65.3889C77.4924 64.3968 76.6987 63.6032 75.7067 63.6032H46.9368C45.9448 63.6032 45.1511 64.3968 45.1511 65.3889V75.3095C45.1511 76.3016 45.9448 77.0952 46.9368 77.0952ZM47.1353 65.3889H75.7067V75.1111H47.1353V65.3889Z" fill="white"/>
<path d="M43.9605 42.1746H43.1669C42.5716 42.1746 42.1748 42.5714 42.1748 43.1667C42.1748 43.7619 42.5716 44.1587 43.1669 44.1587H43.9605C44.5558 44.1587 44.9526 43.7619 44.9526 43.1667C44.9526 42.5714 44.5558 42.1746 43.9605 42.1746Z" fill="white"/>
<path d="M48.127 42.1746H47.3334C46.7381 42.1746 46.3413 42.5714 46.3413 43.1667C46.3413 43.7619 46.7381 44.1587 47.3334 44.1587H48.127C48.7223 44.1587 49.1191 43.7619 49.1191 43.1667C49.1191 42.5714 48.7223 42.1746 48.127 42.1746Z" fill="white"/>
<path d="M52.294 42.1746H51.5004C50.9051 42.1746 50.5083 42.5714 50.5083 43.1667C50.5083 43.7619 50.9051 44.1587 51.5004 44.1587H52.294C52.8893 44.1587 53.2861 43.7619 53.2861 43.1667C53.2861 42.5714 52.8893 42.1746 52.294 42.1746Z" fill="white"/>
<path d="M46.1432 54.4762H59.2384C59.8337 54.4762 60.2305 54.0794 60.2305 53.4841C60.2305 52.8889 59.8337 52.4921 59.2384 52.4921H46.1432C45.5479 52.4921 45.1511 52.8889 45.1511 53.4841C45.1511 54.0794 45.7464 54.4762 46.1432 54.4762Z" fill="white"/>
<path d="M63.6029 54.4762H76.6981C77.2934 54.4762 77.6902 54.0794 77.6902 53.4841C77.6902 52.8889 77.2934 52.4921 76.6981 52.4921H63.6029C63.0077 52.4921 62.6108 52.8889 62.6108 53.4841C62.8093 54.0794 63.2061 54.4762 63.6029 54.4762Z" fill="white"/>
<path d="M55.6669 81.2619H46.5399C45.9447 81.2619 45.5479 81.6587 45.5479 82.254C45.5479 82.8492 45.9447 83.246 46.5399 83.246H55.6669C56.2621 83.246 56.659 82.8492 56.659 82.254C56.659 81.6587 56.2621 81.2619 55.6669 81.2619Z" fill="white"/>
<path d="M46.1432 60.0317H76.8972C77.4924 60.0317 77.8892 59.6349 77.8892 59.0397C77.8892 58.4444 77.4924 58.0476 76.8972 58.0476H46.1432C45.5479 58.0476 45.1511 58.4444 45.1511 59.0397C45.1511 59.6349 45.7464 60.0317 46.1432 60.0317Z" fill="white"/>
<path d="M76.8967 58.246H74.5158H48.7221H46.1428C45.7459 58.246 45.3491 58.6429 45.3491 59.0397C45.3491 59.4365 45.7459 59.8333 46.1428 59.8333H48.5237H74.3174H76.6983C77.0952 59.8333 77.492 59.4365 77.492 59.0397C77.8888 58.6429 77.492 58.246 76.8967 58.246Z" fill="white"/>
<rect x="88" width="40" height="40" rx="20" fill="#FF6900"/>
<path d="M95.5132 18.3704C95.5132 18.687 95.2494 18.8981 94.9855 18.8981C94.7216 18.8981 94.4578 18.687 94.4578 18.3704C94.4578 18.3176 94.4578 18.212 94.4578 18.1593C94.5105 17.9482 94.7216 17.7898 94.9855 17.7898C95.2494 17.8426 95.5132 18.0537 95.5132 18.3704Z" fill="white"/>
<path d="M121.478 20.0064C121.478 27.5003 115.357 33.5693 107.863 33.5693H106.385C104.907 33.5693 103.746 32.4083 103.746 30.9306V19.1092C103.746 17.6315 104.907 16.4705 106.385 16.4705C107.863 16.4705 109.024 17.6315 109.024 19.1092V28.1864C113.034 27.6059 116.148 24.1755 116.148 19.9536C116.148 15.3622 112.454 11.668 107.863 11.668C106.385 11.668 105.013 12.0374 103.852 12.7235C102.427 13.5151 101.266 14.7289 100.527 16.2066C100.474 16.3122 100.158 16.9982 99.9464 17.6843C99.8409 17.9482 99.6298 18.1065 99.3659 18.0537C99.0493 18.0009 98.8382 17.6843 98.9437 17.4204C99.1548 16.5233 99.4714 15.9427 99.5242 15.89C99.6298 15.6261 99.5242 15.3622 99.2604 15.2567H99.2076C98.9437 15.1511 98.6271 15.2567 98.5215 15.4678C98.4687 15.6261 98.3632 15.7316 98.3104 15.89C97.941 16.7871 97.6771 17.7371 97.5188 18.687C97.5188 18.7398 97.466 19.2147 97.466 19.2675C97.466 19.5314 97.2022 19.7953 96.9383 19.7425C96.6216 19.7425 96.4105 19.4786 96.4633 19.2147C96.5161 18.3176 96.7272 17.3676 96.9383 16.576C96.9383 16.5233 96.9383 16.5233 96.9911 16.4705C96.9911 16.2594 96.8327 16.0483 96.6216 15.9427C96.3578 15.8372 96.0939 15.9955 95.9883 16.2594C95.9883 16.3122 95.83 16.7344 95.7772 16.9454C95.7245 17.2093 95.4606 17.3676 95.144 17.3149C94.8801 17.2621 94.669 16.9982 94.7218 16.7344C94.8801 16.1538 95.144 15.3622 95.3023 14.8873C96.3578 12.2485 98.2576 10.032 100.632 8.50157C102.743 7.18221 105.224 6.39059 107.915 6.39059C115.409 6.39059 121.478 12.5124 121.478 20.0064Z" fill="white"/>
</svg>
