<svg width="60" height="60" viewBox="0 0 60 60" fill="none" xmlns="http://www.w3.org/2000/svg">
<rect width="60" height="60" fill="#0F294F"/>
<path d="M22.8 31.25H38Z" fill="white"/>
<path d="M22.8 35.625H38Z" fill="white"/>
<path d="M22.8 40H34.2Z" fill="white"/>
<path d="M37.3667 15H23.4333C20.9849 15 19 16.9588 19 19.375V40.625C19 43.0412 20.9849 45 23.4333 45H37.3667C39.8151 45 41.8 43.0412 41.8 40.625V19.375C41.8 16.9588 39.8151 15 37.3667 15Z" fill="white"/>
<path d="M24.3833 20.9375C23.6838 20.9375 23.1167 21.4972 23.1167 22.1875V25.9375C23.1167 26.6279 23.6838 27.1875 24.3833 27.1875H36.4167C37.1162 27.1875 37.6833 26.6279 37.6833 25.9375V22.1875C37.6833 21.4972 37.1162 20.9375 36.4167 20.9375H24.3833Z" fill="white"/>
<path d="M22.8 31.25H38M22.8 35.625H38M22.8 40H34.2M23.4333 15H37.3667C39.8151 15 41.8 16.9588 41.8 19.375V40.625C41.8 43.0412 39.8151 45 37.3667 45H23.4333C20.9849 45 19 43.0412 19 40.625V19.375C19 16.9588 20.9849 15 23.4333 15ZM24.3833 20.9375C23.6838 20.9375 23.1167 21.4972 23.1167 22.1875V25.9375C23.1167 26.6279 23.6838 27.1875 24.3833 27.1875H36.4167C37.1162 27.1875 37.6833 26.6279 37.6833 25.9375V22.1875C37.6833 21.4972 37.1162 20.9375 36.4167 20.9375H24.3833Z" stroke="#221E1F" stroke-width="1.2" stroke-linecap="round"/>
</svg>
