<svg width="60" height="60" viewBox="0 0 60 60" fill="none" xmlns="http://www.w3.org/2000/svg">
<rect width="60" height="60" fill="#33C6F4"/>
<path d="M20 31.6667H40Z" fill="#33C6F4"/>
<path d="M20 37.5H40Z" fill="#33C6F4"/>
<path d="M20 43.3333H35Z" fill="#33C6F4"/>
<path d="M39.1667 10H20.8333C17.6117 10 15 12.6117 15 15.8333V44.1667C15 47.3883 17.6117 50 20.8333 50H39.1667C42.3883 50 45 47.3883 45 44.1667V15.8333C45 12.6117 42.3883 10 39.1667 10Z" fill="#33C6F4"/>
<path d="M22.0833 17.9167C21.1628 17.9167 20.4167 18.6629 20.4167 19.5833V24.5833C20.4167 25.5038 21.1628 26.25 22.0833 26.25H37.9167C38.8372 26.25 39.5833 25.5038 39.5833 24.5833V19.5833C39.5833 18.6629 38.8372 17.9167 37.9167 17.9167H22.0833Z" fill="white"/>
<path d="M20 31.6667H40M20 37.5H40M20 43.3333H35M20.8333 10H39.1667C42.3883 10 45 12.6117 45 15.8333V44.1667C45 47.3883 42.3883 50 39.1667 50H20.8333C17.6117 50 15 47.3883 15 44.1667V15.8333C15 12.6117 17.6117 10 20.8333 10ZM22.0833 17.9167C21.1628 17.9167 20.4167 18.6629 20.4167 19.5833V24.5833C20.4167 25.5038 21.1628 26.25 22.0833 26.25H37.9167C38.8372 26.25 39.5833 25.5038 39.5833 24.5833V19.5833C39.5833 18.6629 38.8372 17.9167 37.9167 17.9167H22.0833Z" stroke="black" stroke-linecap="round"/>
</svg>
