<svg width="60" height="60" viewBox="0 0 60 60" fill="none" xmlns="http://www.w3.org/2000/svg">
<rect width="60" height="60" rx="9.375" fill="url(#paint0_linear_310_257)"/>
<path d="M29.2 30C29.2 35.081 25.081 39.2 20 39.2C14.919 39.2 10.8 35.081 10.8 30C10.8 24.919 14.919 20.8 20 20.8C25.081 20.8 29.2 24.919 29.2 30Z" stroke="#33C6F4" stroke-width="1.6"/>
<path d="M17.7532 35C17.5095 35 17.3212 34.9277 17.1883 34.783C17.0628 34.6298 17 34.4128 17 34.1319V26.8681C17 26.5872 17.0628 26.3745 17.1883 26.2298C17.3212 26.0766 17.5095 26 17.7532 26H19.9019C21.2089 26 22.2168 26.3872 22.9256 27.1617C23.6419 27.9362 24 29.0468 24 30.4936C24 31.217 23.9077 31.8596 23.7231 32.4213C23.5459 32.9745 23.2801 33.4426 22.9256 33.8255C22.5786 34.2085 22.1503 34.5021 21.6408 34.7064C21.1387 34.9021 20.5591 35 19.9019 35H17.7532ZM18.4177 33.6468H19.8133C20.2711 33.6468 20.6661 33.583 20.9984 33.4553C21.3381 33.3191 21.6187 33.1234 21.8402 32.8681C22.0691 32.6043 22.2389 32.2766 22.3497 31.8851C22.4604 31.4851 22.5158 31.0213 22.5158 30.4936C22.5158 29.4383 22.2906 28.6511 21.8402 28.1319C21.3898 27.6128 20.7141 27.3532 19.8133 27.3532H18.4177V33.6468Z" fill="#33C6F4"/>
<mask id="mask0_310_257" style="mask-type:luminance" maskUnits="userSpaceOnUse" x="30" y="20" width="20" height="20">
<path d="M40 40C45.5228 40 50 35.5228 50 30C50 24.4772 45.5228 20 40 20C34.4772 20 30 24.4772 30 30C30 35.5228 34.4772 40 40 40Z" fill="white"/>
</mask>
<g mask="url(#mask0_310_257)">
<path d="M40 40C45.5228 40 50 35.5228 50 30C50 24.4772 45.5228 20 40 20C34.4772 20 30 24.4772 30 30C30 35.5228 34.4772 40 40 40Z" fill="#33C6F4"/>
<path d="M50.2955 34.1386C45.6971 32.0723 40.9653 26.2643 40.5667 25.9983C40.168 25.7322 39.6334 26.0646 39.6334 26.0646C39.3002 25.5316 38.7673 26.1309 38.7673 26.1309C36.3006 30.3297 29.7031 34.3383 29.7031 34.3383C29.7031 34.3383 32.8714 40.1653 40.1947 40.1653C47.6403 40.1653 50.2955 34.1386 50.2955 34.1386Z" fill="#1B447E"/>
<path d="M35.5039 29.7314C35.5039 29.7314 36.8367 29.1287 36.5698 30.1317C36.3029 31.1347 35.237 32.5975 35.5702 32.6638C35.9034 32.7301 36.8401 31.7977 37.1036 31.9303C37.367 32.0628 37.5702 31.9974 37.4368 32.4641C37.3033 32.9307 37.1699 33.2639 37.4368 33.2639C37.7036 33.2639 37.9034 32.6612 38.2366 32.0637C38.5698 31.4662 39.1027 31.7305 39.3024 31.9303C39.5022 32.13 40.1023 33.2639 40.5689 33.1304C41.0355 32.997 41.3016 32.3969 41.1018 31.0641C40.9021 29.7314 41.2353 29.3319 41.2353 29.3319C41.2353 29.3319 41.6348 29.1322 42.3683 30.0646C43.1018 30.997 44.4346 32.3969 44.6335 32.3306C44.8324 32.2643 43.7011 30.7981 43.9671 30.6647C44.2331 30.5312 45.2999 30.8644 45.8337 31.331C45.8337 31.331 46.0162 32.0947 46.0162 31.362L40.5689 26L39.6356 26.0654L38.7695 26.1317C38.7695 26.1317 36.6369 29.3319 35.5039 29.7314Z" fill="white"/>
<path d="M50.2955 34.3383C45.6971 32.2721 40.9653 26.2643 40.5667 25.9983C40.168 25.7322 39.6334 26.0646 39.6334 26.0646C39.3002 25.5316 38.7673 26.1309 38.7673 26.1309C36.3006 30.3297 29.7031 34.3383 29.7031 34.3383" stroke="black" stroke-width="1.5" stroke-miterlimit="10"/>
</g>
<path d="M49.25 30C49.25 35.1086 45.1086 39.25 40 39.25C34.8914 39.25 30.75 35.1086 30.75 30C30.75 24.8914 34.8914 20.75 40 20.75C45.1086 20.75 49.25 24.8914 49.25 30Z" stroke="black" stroke-width="1.5" stroke-miterlimit="10"/>
<rect x="26" y="26" width="8" height="8" rx="4" fill="white"/>
<path d="M29.6606 32V28H30.3394V32H29.6606ZM28 30.3394V29.6606H32V30.3394H28Z" fill="black"/>
<defs>
<linearGradient id="paint0_linear_310_257" x1="1.5" y1="1" x2="58.5" y2="59" gradientUnits="userSpaceOnUse">
<stop stop-color="#020627"/>
<stop offset="1" stop-color="#225FB5"/>
</linearGradient>
</defs>
</svg>
