<svg width="60" height="60" viewBox="0 0 60 60" fill="none" xmlns="http://www.w3.org/2000/svg">
<rect width="60" height="60" rx="9.375" fill="url(#paint0_linear_310_257)"/>
<path d="M25.2 30C25.2 35.081 21.081 39.2 16 39.2C10.919 39.2 6.8 35.081 6.8 30C6.8 24.919 10.919 20.8 16 20.8C21.081 20.8 25.2 24.919 25.2 30Z" stroke="#33C6F4" stroke-width="1.6"/>
<path d="M12.8608 34C12.5823 34 12.3671 33.9357 12.2152 33.8071C12.0717 33.6709 12 33.478 12 33.2284V26.7716C12 26.522 12.0717 26.3329 12.2152 26.2043C12.3671 26.0681 12.5823 26 12.8608 26H15.3165C16.8101 26 17.962 26.3442 18.7722 27.0326C19.5907 27.721 20 28.7083 20 29.9943C20 30.6374 19.8945 31.2085 19.6835 31.7078C19.481 32.1995 19.1772 32.6156 18.7722 32.956C18.3755 33.2965 17.8861 33.5574 17.3038 33.739C16.73 33.913 16.0675 34 15.3165 34H12.8608ZM13.6203 32.7972H15.2152C15.7384 32.7972 16.1899 32.7404 16.5696 32.627C16.9578 32.5059 17.2785 32.3319 17.5316 32.105C17.7932 31.8704 17.9873 31.5792 18.1139 31.2312C18.2405 30.8757 18.3038 30.4634 18.3038 29.9943C18.3038 29.0563 18.0464 28.3565 17.5316 27.895C17.0169 27.4336 16.2447 27.2028 15.2152 27.2028H13.6203V32.7972Z" fill="#33C6F4"/>
<rect x="27" y="27.5" width="5" height="5" rx="2.5" fill="white"/>
<path d="M29.2455 31.5V28.5H29.7545V31.5H29.2455ZM28 30.2545V29.7455H31V30.2545H28Z" fill="#192471"/>
<mask id="mask0_310_257" style="mask-type:luminance" maskUnits="userSpaceOnUse" x="33" y="20" width="20" height="20">
<path d="M43 40C48.5228 40 53 35.5228 53 30C53 24.4772 48.5228 20 43 20C37.4772 20 33 24.4772 33 30C33 35.5228 37.4772 40 43 40Z" fill="white"/>
</mask>
<g mask="url(#mask0_310_257)">
<path d="M43 40C48.5228 40 53 35.5228 53 30C53 24.4772 48.5228 20 43 20C37.4772 20 33 24.4772 33 30C33 35.5228 37.4772 40 43 40Z" fill="#33C6F4"/>
<path d="M53.2955 34.1386C48.6971 32.0723 43.9653 26.2643 43.5667 25.9983C43.168 25.7322 42.6334 26.0646 42.6334 26.0646C42.3002 25.5316 41.7673 26.1309 41.7673 26.1309C39.3006 30.3297 32.7031 34.3383 32.7031 34.3383C32.7031 34.3383 35.8714 40.1653 43.1947 40.1653C50.6403 40.1653 53.2955 34.1386 53.2955 34.1386Z" fill="#1B447E"/>
<path d="M38.5039 29.7314C38.5039 29.7314 39.8367 29.1287 39.5698 30.1317C39.3029 31.1347 38.237 32.5975 38.5702 32.6638C38.9034 32.7301 39.8401 31.7977 40.1036 31.9303C40.367 32.0628 40.5702 31.9974 40.4368 32.4641C40.3033 32.9307 40.1699 33.2639 40.4368 33.2639C40.7036 33.2639 40.9034 32.6612 41.2366 32.0637C41.5698 31.4662 42.1027 31.7305 42.3024 31.9303C42.5022 32.13 43.1023 33.2639 43.5689 33.1304C44.0355 32.997 44.3016 32.3969 44.1018 31.0641C43.9021 29.7314 44.2353 29.3319 44.2353 29.3319C44.2353 29.3319 44.6348 29.1322 45.3683 30.0646C46.1018 30.997 47.4346 32.3969 47.6335 32.3306C47.8324 32.2643 46.7011 30.7981 46.9671 30.6647C47.2331 30.5312 48.2999 30.8644 48.8337 31.331C48.8337 31.331 49.0162 32.0947 49.0162 31.362L43.5689 26L42.6356 26.0654L41.7695 26.1317C41.7695 26.1317 39.6369 29.3319 38.5039 29.7314Z" fill="white"/>
<path d="M53.2955 34.3383C48.6971 32.2721 43.9653 26.2643 43.5667 25.9983C43.168 25.7322 42.6334 26.0646 42.6334 26.0646C42.3002 25.5316 41.7673 26.1309 41.7673 26.1309C39.3006 30.3297 32.7031 34.3383 32.7031 34.3383" stroke="black" stroke-width="1.5" stroke-miterlimit="10"/>
</g>
<path d="M52.25 30C52.25 35.1086 48.1086 39.25 43 39.25C37.8914 39.25 33.75 35.1086 33.75 30C33.75 24.8914 37.8914 20.75 43 20.75C48.1086 20.75 52.25 24.8914 52.25 30Z" stroke="black" stroke-width="1.5" stroke-miterlimit="10"/>
<defs>
<linearGradient id="paint0_linear_310_257" x1="1.5" y1="1" x2="58.5" y2="59" gradientUnits="userSpaceOnUse">
<stop stop-color="#020627"/>
<stop offset="1" stop-color="#225FB5"/>
</linearGradient>
</defs>
</svg>
