<svg width="60" height="60" viewBox="0 0 60 60" fill="none" xmlns="http://www.w3.org/2000/svg">
<rect width="60" height="60" rx="9.375" fill="url(#paint0_linear_310_287)"/>
<path d="M28.2 20C28.2 25.081 24.081 29.2 19 29.2C13.919 29.2 9.8 25.081 9.8 20C9.8 14.919 13.919 10.8 19 10.8C24.081 10.8 28.2 14.919 28.2 20Z" stroke="#33C6F4" stroke-width="1.6"/>
<path d="M15.8608 25C15.5823 25 15.3671 24.9277 15.2152 24.783C15.0717 24.6298 15 24.4128 15 24.1319V16.8681C15 16.5872 15.0717 16.3745 15.2152 16.2298C15.3671 16.0766 15.5823 16 15.8608 16H18.3165C19.8101 16 20.962 16.3872 21.7722 17.1617C22.5907 17.9362 23 19.0468 23 20.4936C23 21.217 22.8945 21.8596 22.6835 22.4213C22.481 22.9745 22.1772 23.4426 21.7722 23.8255C21.3755 24.2085 20.8861 24.5021 20.3038 24.7064C19.73 24.9021 19.0675 25 18.3165 25H15.8608ZM16.6203 23.6468H18.2152C18.7384 23.6468 19.1899 23.583 19.5696 23.4553C19.9578 23.3191 20.2785 23.1234 20.5316 22.8681C20.7932 22.6043 20.9873 22.2766 21.1139 21.8851C21.2405 21.4851 21.3038 21.0213 21.3038 20.4936C21.3038 19.4383 21.0464 18.6511 20.5316 18.1319C20.0169 17.6128 19.2447 17.3532 18.2152 17.3532H16.6203V23.6468Z" fill="#33C6F4"/>
<mask id="mask0_310_287" style="mask-type:luminance" maskUnits="userSpaceOnUse" x="29" y="10" width="20" height="20">
<path d="M39 30C44.5228 30 49 25.5228 49 20C49 14.4772 44.5228 10 39 10C33.4772 10 29 14.4772 29 20C29 25.5228 33.4772 30 39 30Z" fill="white"/>
</mask>
<g mask="url(#mask0_310_287)">
<path d="M39 30C44.5228 30 49 25.5228 49 20C49 14.4772 44.5228 10 39 10C33.4772 10 29 14.4772 29 20C29 25.5228 33.4772 30 39 30Z" fill="#33C6F4"/>
<path d="M49.2955 24.1386C44.6971 22.0723 39.9653 16.2643 39.5667 15.9983C39.168 15.7322 38.6334 16.0646 38.6334 16.0646C38.3002 15.5316 37.7673 16.1309 37.7673 16.1309C35.3006 20.3297 28.7031 24.3383 28.7031 24.3383C28.7031 24.3383 31.8714 30.1653 39.1947 30.1653C46.6403 30.1653 49.2955 24.1386 49.2955 24.1386Z" fill="#1B447E"/>
<path d="M34.5039 19.7314C34.5039 19.7314 35.8367 19.1287 35.5698 20.1317C35.3029 21.1347 34.237 22.5975 34.5702 22.6638C34.9034 22.7301 35.8401 21.7977 36.1036 21.9303C36.367 22.0628 36.5702 21.9974 36.4368 22.4641C36.3033 22.9307 36.1699 23.2639 36.4368 23.2639C36.7036 23.2639 36.9034 22.6612 37.2366 22.0637C37.5698 21.4662 38.1027 21.7305 38.3024 21.9303C38.5022 22.13 39.1023 23.2639 39.5689 23.1304C40.0355 22.997 40.3016 22.3969 40.1018 21.0641C39.9021 19.7314 40.2353 19.3319 40.2353 19.3319C40.2353 19.3319 40.6348 19.1322 41.3683 20.0646C42.1018 20.997 43.4346 22.3969 43.6335 22.3306C43.8324 22.2643 42.7011 20.7981 42.9671 20.6647C43.2331 20.5312 44.2999 20.8644 44.8337 21.331C44.8337 21.331 45.0162 22.0947 45.0162 21.362L39.5689 16L38.6356 16.0654L37.7695 16.1317C37.7695 16.1317 35.6369 19.3319 34.5039 19.7314Z" fill="white"/>
<path d="M49.2955 24.3383C44.6971 22.2721 39.9653 16.2643 39.5667 15.9983C39.168 15.7322 38.6334 16.0646 38.6334 16.0646C38.3002 15.5316 37.7673 16.1309 37.7673 16.1309C35.3006 20.3297 28.7031 24.3383 28.7031 24.3383" stroke="black" stroke-width="1.5" stroke-miterlimit="10"/>
</g>
<path d="M48.25 20C48.25 25.1086 44.1086 29.25 39 29.25C33.8914 29.25 29.75 25.1086 29.75 20C29.75 14.8914 33.8914 10.75 39 10.75C44.1086 10.75 48.25 14.8914 48.25 20Z" stroke="black" stroke-width="1.5" stroke-miterlimit="10"/>
<rect x="25" y="16" width="8" height="8" rx="4" fill="white"/>
<path d="M28.6606 22V18H29.3394V22H28.6606ZM27 20.3394V19.6606H31V20.3394H27Z" fill="black"/>
<path d="M8.86417 40.06C8.54417 40.06 8.24617 40.008 7.97017 39.904C7.69817 39.796 7.46017 39.646 7.25617 39.454C7.05617 39.258 6.90017 39.028 6.78817 38.764C6.67617 38.5 6.62017 38.212 6.62017 37.9C6.62017 37.588 6.67617 37.3 6.78817 37.036C6.90017 36.772 7.05817 36.544 7.26217 36.352C7.46617 36.156 7.70417 36.006 7.97617 35.902C8.24817 35.794 8.54617 35.74 8.87017 35.74C9.21417 35.74 9.52817 35.8 9.81217 35.92C10.0962 36.036 10.3362 36.21 10.5322 36.442L10.0282 36.916C9.87617 36.752 9.70617 36.63 9.51817 36.55C9.33017 36.466 9.12617 36.424 8.90617 36.424C8.68617 36.424 8.48417 36.46 8.30017 36.532C8.12017 36.604 7.96217 36.706 7.82617 36.838C7.69417 36.97 7.59017 37.126 7.51417 37.306C7.44217 37.486 7.40617 37.684 7.40617 37.9C7.40617 38.116 7.44217 38.314 7.51417 38.494C7.59017 38.674 7.69417 38.83 7.82617 38.962C7.96217 39.094 8.12017 39.196 8.30017 39.268C8.48417 39.34 8.68617 39.376 8.90617 39.376C9.12617 39.376 9.33017 39.336 9.51817 39.256C9.70617 39.172 9.87617 39.046 10.0282 38.878L10.5322 39.358C10.3362 39.586 10.0962 39.76 9.81217 39.88C9.52817 40 9.21217 40.06 8.86417 40.06ZM12.4045 40.042C12.0765 40.042 11.7845 39.972 11.5285 39.832C11.2725 39.688 11.0705 39.492 10.9225 39.244C10.7745 38.996 10.7005 38.714 10.7005 38.398C10.7005 38.078 10.7745 37.796 10.9225 37.552C11.0705 37.304 11.2725 37.11 11.5285 36.97C11.7845 36.83 12.0765 36.76 12.4045 36.76C12.7365 36.76 13.0305 36.83 13.2865 36.97C13.5465 37.11 13.7485 37.302 13.8925 37.546C14.0405 37.79 14.1145 38.074 14.1145 38.398C14.1145 38.714 14.0405 38.996 13.8925 39.244C13.7485 39.492 13.5465 39.688 13.2865 39.832C13.0305 39.972 12.7365 40.042 12.4045 40.042ZM12.4045 39.4C12.5885 39.4 12.7525 39.36 12.8965 39.28C13.0405 39.2 13.1525 39.084 13.2325 38.932C13.3165 38.78 13.3585 38.602 13.3585 38.398C13.3585 38.19 13.3165 38.012 13.2325 37.864C13.1525 37.712 13.0405 37.596 12.8965 37.516C12.7525 37.436 12.5905 37.396 12.4105 37.396C12.2265 37.396 12.0625 37.436 11.9185 37.516C11.7785 37.596 11.6665 37.712 11.5825 37.864C11.4985 38.012 11.4565 38.19 11.4565 38.398C11.4565 38.602 11.4985 38.78 11.5825 38.932C11.6665 39.084 11.7785 39.2 11.9185 39.28C12.0625 39.36 12.2245 39.4 12.4045 39.4ZM16.5297 36.76C16.7857 36.76 17.0137 36.81 17.2137 36.91C17.4177 37.01 17.5777 37.164 17.6937 37.372C17.8097 37.576 17.8677 37.84 17.8677 38.164V40H17.1177V38.26C17.1177 37.976 17.0497 37.764 16.9137 37.624C16.7817 37.484 16.5957 37.414 16.3557 37.414C16.1797 37.414 16.0237 37.45 15.8877 37.522C15.7517 37.594 15.6457 37.702 15.5697 37.846C15.4977 37.986 15.4617 38.164 15.4617 38.38V40H14.7117V36.796H15.4257V37.66L15.2997 37.396C15.4117 37.192 15.5737 37.036 15.7857 36.928C16.0017 36.816 16.2497 36.76 16.5297 36.76ZM19.9051 40.042C19.5531 40.042 19.2811 39.952 19.0891 39.772C18.8971 39.588 18.8011 39.318 18.8011 38.962V36.088H19.5511V38.944C19.5511 39.096 19.5891 39.214 19.6651 39.298C19.7451 39.382 19.8551 39.424 19.9951 39.424C20.1631 39.424 20.3031 39.38 20.4151 39.292L20.6251 39.826C20.5371 39.898 20.4291 39.952 20.3011 39.988C20.1731 40.024 20.0411 40.042 19.9051 40.042ZM18.2731 37.42V36.82H20.4091V37.42H18.2731ZM23.0961 40V39.352L23.0541 39.214V38.08C23.0541 37.86 22.9881 37.69 22.8561 37.57C22.7241 37.446 22.5241 37.384 22.2561 37.384C22.0761 37.384 21.8981 37.412 21.7221 37.468C21.5501 37.524 21.4041 37.602 21.2841 37.702L20.9901 37.156C21.1621 37.024 21.3661 36.926 21.6021 36.862C21.8421 36.794 22.0901 36.76 22.3461 36.76C22.8101 36.76 23.1681 36.872 23.4201 37.096C23.6761 37.316 23.8041 37.658 23.8041 38.122V40H23.0961ZM22.0881 40.042C21.8481 40.042 21.6381 40.002 21.4581 39.922C21.2781 39.838 21.1381 39.724 21.0381 39.58C20.9421 39.432 20.8941 39.266 20.8941 39.082C20.8941 38.902 20.9361 38.74 21.0201 38.596C21.1081 38.452 21.2501 38.338 21.4461 38.254C21.6421 38.17 21.9021 38.128 22.2261 38.128H23.1561V38.626H22.2801C22.0241 38.626 21.8521 38.668 21.7641 38.752C21.6761 38.832 21.6321 38.932 21.6321 39.052C21.6321 39.188 21.6861 39.296 21.7941 39.376C21.9021 39.456 22.0521 39.496 22.2441 39.496C22.4281 39.496 22.5921 39.454 22.7361 39.37C22.8841 39.286 22.9901 39.162 23.0541 38.998L23.1801 39.448C23.1081 39.636 22.9781 39.782 22.7901 39.886C22.6061 39.99 22.3721 40.042 22.0881 40.042ZM26.1225 40.042C25.7865 40.042 25.4865 39.972 25.2225 39.832C24.9625 39.688 24.7585 39.492 24.6105 39.244C24.4625 38.996 24.3885 38.714 24.3885 38.398C24.3885 38.078 24.4625 37.796 24.6105 37.552C24.7585 37.304 24.9625 37.11 25.2225 36.97C25.4865 36.83 25.7865 36.76 26.1225 36.76C26.4345 36.76 26.7085 36.824 26.9445 36.952C27.1845 37.076 27.3665 37.26 27.4905 37.504L26.9145 37.84C26.8185 37.688 26.7005 37.576 26.5605 37.504C26.4245 37.432 26.2765 37.396 26.1165 37.396C25.9325 37.396 25.7665 37.436 25.6185 37.516C25.4705 37.596 25.3545 37.712 25.2705 37.864C25.1865 38.012 25.1445 38.19 25.1445 38.398C25.1445 38.606 25.1865 38.786 25.2705 38.938C25.3545 39.086 25.4705 39.2 25.6185 39.28C25.7665 39.36 25.9325 39.4 26.1165 39.4C26.2765 39.4 26.4245 39.364 26.5605 39.292C26.7005 39.22 26.8185 39.108 26.9145 38.956L27.4905 39.292C27.3665 39.532 27.1845 39.718 26.9445 39.85C26.7085 39.978 26.4345 40.042 26.1225 40.042ZM29.2658 40.042C28.9138 40.042 28.6418 39.952 28.4498 39.772C28.2578 39.588 28.1618 39.318 28.1618 38.962V36.088H28.9118V38.944C28.9118 39.096 28.9498 39.214 29.0258 39.298C29.1058 39.382 29.2158 39.424 29.3558 39.424C29.5238 39.424 29.6638 39.38 29.7758 39.292L29.9858 39.826C29.8978 39.898 29.7898 39.952 29.6618 39.988C29.5338 40.024 29.4018 40.042 29.2658 40.042ZM27.6338 37.42V36.82H29.7698V37.42H27.6338ZM32.807 37.732H34.901V38.392H32.807V37.732ZM32.873 40H32.093V35.8H35.159V36.454H32.873V40ZM37.0734 40.042C36.7454 40.042 36.4534 39.972 36.1974 39.832C35.9414 39.688 35.7394 39.492 35.5914 39.244C35.4434 38.996 35.3694 38.714 35.3694 38.398C35.3694 38.078 35.4434 37.796 35.5914 37.552C35.7394 37.304 35.9414 37.11 36.1974 36.97C36.4534 36.83 36.7454 36.76 37.0734 36.76C37.4054 36.76 37.6994 36.83 37.9554 36.97C38.2154 37.11 38.4174 37.302 38.5614 37.546C38.7094 37.79 38.7834 38.074 38.7834 38.398C38.7834 38.714 38.7094 38.996 38.5614 39.244C38.4174 39.492 38.2154 39.688 37.9554 39.832C37.6994 39.972 37.4054 40.042 37.0734 40.042ZM37.0734 39.4C37.2574 39.4 37.4214 39.36 37.5654 39.28C37.7094 39.2 37.8214 39.084 37.9014 38.932C37.9854 38.78 38.0274 38.602 38.0274 38.398C38.0274 38.19 37.9854 38.012 37.9014 37.864C37.8214 37.712 37.7094 37.596 37.5654 37.516C37.4214 37.436 37.2594 37.396 37.0794 37.396C36.8954 37.396 36.7314 37.436 36.5874 37.516C36.4474 37.596 36.3354 37.712 36.2514 37.864C36.1674 38.012 36.1254 38.19 36.1254 38.398C36.1254 38.602 36.1674 38.78 36.2514 38.932C36.3354 39.084 36.4474 39.2 36.5874 39.28C36.7314 39.36 36.8934 39.4 37.0734 39.4ZM39.3806 40V36.796H40.0946V37.678L40.0106 37.42C40.1066 37.204 40.2566 37.04 40.4606 36.928C40.6686 36.816 40.9266 36.76 41.2346 36.76V37.474C41.2026 37.466 41.1726 37.462 41.1446 37.462C41.1166 37.458 41.0886 37.456 41.0606 37.456C40.7766 37.456 40.5506 37.54 40.3826 37.708C40.2146 37.872 40.1306 38.118 40.1306 38.446V40H39.3806ZM45.7948 36.76C46.0508 36.76 46.2768 36.81 46.4728 36.91C46.6728 37.01 46.8288 37.164 46.9408 37.372C47.0528 37.576 47.1088 37.84 47.1088 38.164V40H46.3588V38.26C46.3588 37.976 46.2968 37.764 46.1728 37.624C46.0488 37.484 45.8708 37.414 45.6388 37.414C45.4748 37.414 45.3288 37.45 45.2008 37.522C45.0768 37.594 44.9788 37.7 44.9068 37.84C44.8388 37.98 44.8048 38.158 44.8048 38.374V40H44.0548V38.26C44.0548 37.976 43.9928 37.764 43.8688 37.624C43.7448 37.484 43.5668 37.414 43.3348 37.414C43.1708 37.414 43.0248 37.45 42.8968 37.522C42.7728 37.594 42.6748 37.7 42.6028 37.84C42.5348 37.98 42.5008 38.158 42.5008 38.374V40H41.7508V36.796H42.4648V37.648L42.3388 37.396C42.4468 37.188 42.6028 37.03 42.8068 36.922C43.0148 36.814 43.2508 36.76 43.5148 36.76C43.8148 36.76 44.0748 36.834 44.2948 36.982C44.5188 37.13 44.6668 37.354 44.7388 37.654L44.4448 37.552C44.5488 37.312 44.7208 37.12 44.9608 36.976C45.2008 36.832 45.4788 36.76 45.7948 36.76ZM49.9594 40L51.6934 36.112L51.8974 36.46H49.5154L49.8874 36.082V37.174H49.1614V35.8H52.4254V36.322L50.7934 40H49.9594Z" fill="white"/>
<path d="M21.7247 49.098C21.3234 49.098 20.936 49.049 20.5627 48.951C20.194 48.8483 19.893 48.7177 19.6597 48.559L20.1147 47.537C20.334 47.677 20.586 47.7937 20.8707 47.887C21.16 47.9757 21.447 48.02 21.7317 48.02C21.923 48.02 22.077 48.0037 22.1937 47.971C22.3104 47.9337 22.3944 47.887 22.4457 47.831C22.5017 47.7703 22.5297 47.7003 22.5297 47.621C22.5297 47.509 22.4784 47.4203 22.3757 47.355C22.273 47.2897 22.14 47.236 21.9767 47.194C21.8134 47.152 21.6314 47.11 21.4307 47.068C21.2347 47.026 21.0364 46.9723 20.8357 46.907C20.6397 46.8417 20.46 46.7577 20.2967 46.655C20.1334 46.5477 20.0004 46.41 19.8977 46.242C19.795 46.0693 19.7437 45.8523 19.7437 45.591C19.7437 45.297 19.823 45.031 19.9817 44.793C20.145 44.555 20.3877 44.3637 20.7097 44.219C21.0317 44.0743 21.433 44.002 21.9137 44.002C22.2357 44.002 22.5507 44.0393 22.8587 44.114C23.1714 44.184 23.449 44.289 23.6917 44.429L23.2647 45.458C23.0314 45.332 22.8004 45.2387 22.5717 45.178C22.343 45.1127 22.1214 45.08 21.9067 45.08C21.7154 45.08 21.5614 45.101 21.4447 45.143C21.328 45.1803 21.244 45.2317 21.1927 45.297C21.1414 45.3623 21.1157 45.437 21.1157 45.521C21.1157 45.6283 21.1647 45.7147 21.2627 45.78C21.3654 45.8407 21.4984 45.892 21.6617 45.934C21.8297 45.9713 22.0117 46.011 22.2077 46.053C22.4084 46.095 22.6067 46.1487 22.8027 46.214C23.0034 46.2747 23.1854 46.3587 23.3487 46.466C23.512 46.5687 23.6427 46.7063 23.7407 46.879C23.8434 47.047 23.8947 47.2593 23.8947 47.516C23.8947 47.8007 23.813 48.0643 23.6497 48.307C23.491 48.545 23.2507 48.7363 22.9287 48.881C22.6114 49.0257 22.21 49.098 21.7247 49.098ZM25.8159 49.063C25.3306 49.063 24.9526 48.944 24.6819 48.706C24.4113 48.4633 24.2759 48.0993 24.2759 47.614V44.359H25.6059V47.6C25.6059 47.7353 25.6433 47.8427 25.7179 47.922C25.7926 47.9967 25.8883 48.034 26.0049 48.034C26.1636 48.034 26.2989 47.9943 26.4109 47.915L26.7399 48.846C26.6279 48.9207 26.4903 48.9743 26.3269 49.007C26.1636 49.0443 25.9933 49.063 25.8159 49.063ZM23.7229 46.34V45.346H26.4739V46.34H23.7229ZM27.4854 50.421C27.2848 50.421 27.0818 50.3883 26.8764 50.323C26.6758 50.2623 26.5124 50.1807 26.3864 50.078L26.8484 49.147C26.9278 49.217 27.0188 49.2707 27.1214 49.308C27.2288 49.35 27.3338 49.371 27.4364 49.371C27.5811 49.371 27.6954 49.3383 27.7794 49.273C27.8634 49.2077 27.9358 49.105 27.9964 48.965L28.1714 48.524L28.2764 48.391L29.5644 45.206H30.8314L29.1934 49.154C29.0628 49.4807 28.9111 49.735 28.7384 49.917C28.5704 50.1037 28.3814 50.2343 28.1714 50.309C27.9661 50.3837 27.7374 50.421 27.4854 50.421ZM28.0034 49.161L26.3304 45.206H27.6954L28.9274 48.272L28.0034 49.161ZM30.8252 49V43.806H32.1552V49H30.8252ZM34.6576 49.063C34.2096 49.063 33.8176 48.979 33.4816 48.811C33.1502 48.6383 32.8912 48.405 32.7046 48.111C32.5226 47.8123 32.4316 47.474 32.4316 47.096C32.4316 46.718 32.5202 46.382 32.6976 46.088C32.8796 45.7893 33.1292 45.5583 33.4466 45.395C33.7639 45.227 34.1209 45.143 34.5176 45.143C34.8909 45.143 35.2316 45.22 35.5396 45.374C35.8476 45.5233 36.0926 45.745 36.2746 46.039C36.4566 46.333 36.5476 46.69 36.5476 47.11C36.5476 47.1567 36.5452 47.2103 36.5406 47.271C36.5359 47.3317 36.5312 47.3877 36.5266 47.439H33.5236V46.739H35.8196L35.3156 46.935C35.3202 46.7623 35.2876 46.613 35.2176 46.487C35.1522 46.361 35.0589 46.263 34.9376 46.193C34.8209 46.123 34.6832 46.088 34.5246 46.088C34.3659 46.088 34.2259 46.123 34.1046 46.193C33.9879 46.263 33.8969 46.3633 33.8316 46.494C33.7662 46.62 33.7336 46.7693 33.7336 46.942V47.145C33.7336 47.3317 33.7709 47.4927 33.8456 47.628C33.9249 47.7633 34.0369 47.8683 34.1816 47.943C34.3262 48.013 34.4989 48.048 34.6996 48.048C34.8862 48.048 35.0449 48.0223 35.1756 47.971C35.3109 47.915 35.4439 47.831 35.5746 47.719L36.2746 48.447C36.0926 48.6477 35.8686 48.8017 35.6026 48.909C35.3366 49.0117 35.0216 49.063 34.6576 49.063ZM36.8108 49V45.206H38.0778V46.312L37.8888 45.997C38.0008 45.7123 38.1828 45.5 38.4348 45.36C38.6868 45.2153 38.9925 45.143 39.3518 45.143V46.34C39.2911 46.3307 39.2375 46.326 39.1908 46.326C39.1488 46.3213 39.1021 46.319 39.0508 46.319C38.7801 46.319 38.5608 46.3937 38.3928 46.543C38.2248 46.6877 38.1408 46.9257 38.1408 47.257V49H36.8108Z" fill="#FDD17A"/>
<defs>
<linearGradient id="paint0_linear_310_287" x1="1.5" y1="1" x2="58.5" y2="59" gradientUnits="userSpaceOnUse">
<stop stop-color="#020627"/>
<stop offset="1" stop-color="#225FB5"/>
</linearGradient>
</defs>
</svg>
